# xmcd
#
# Track frame offsets:
#	150
#	11958
#	30023
#	46085
#	62410
#	81349
#	101899
#	112782
#	133291
#	150036
#	172921
#	184637
#	200828
#	214784
#	234215
#	250296
#	271593
#	286298
#	305898
#	324115
#	344210
#
# Disc length: 4740 seconds
#
# Revision: 1
# Processed by: cddbd v1.5.2PL0 Copyright (c) Steve Scherf et al.
# Submitted via: audiograbber 1.83.01
#
DISCID=1b128215
DTITLE=DJ Whiteside - Ugly House Sensation 2012
DYEAR=2012
DGENRE=House
TTITLE0=Whiteside - Put Me High (Instrumental Version)
TTITLE1=Taio Cruz - Hangover
TTITLE2=Daniel Lopez - Ai Se Eu Te Pego (Mr. Da-Nos Remix)
TTITLE3=Avicii - Levels (Original Version)
TTITLE4=Timati and P.Diddy, DJ Antoine, Dirty Money - I'm On You (DJ Antoine vs. 
TTITLE4=Mad Mark Extended Re-Construction)
TTITLE5=Jason Derulo - It Girl (7th Heaven Club Mix)
TTITLE6=Clokx - Oddity (Extended Mix)
TTITLE7=Whiteside and Slin Project - Stronger (Whiteside and Mordax Bastards Remix)
TTITLE8=DJ Antoine feat. The Beat Shakers - Ma Chéry (DJ Antoine vs. Mad Mark 2
TTITLE8=K12 Remix)
TTITLE9=EDX feat. John Williams - Give It Up For Love (Original Club Mix)
TTITLE10=Sebastian Krieg feat. Joe Perrone - Don't Stop (Original Mix)
TTITLE11=Whiteside and Slin Project - Touch The Sky (LX-Tronyx Remix)
TTITLE12=Sean Finn - Show Me Love 2K12 (Bodybangers Remix)
TTITLE13=René De La Moné and Slin Project - 2012 (Get Your Hands Up)
TTITLE14=The Disco Boys feat. Manfred Mann's Earth Band - For You (Freemasons R
TTITLE14=emix)
TTITLE15=Whiteside - Going Crazy (Original Mix)
TTITLE16=Anti-Funky - Smoke On The Water (Everybody Jump Extended Version)
TTITLE17=Darren Bailie and Oscar De La Fuente - Promise Me (4 O'Clock)
TTITLE18=Mr. Da-Nos feat. Matthew - Lass Dich Gehen (Mr. Da-Nos vs. Clamoreproj
TTITLE18=ect Remix)
TTITLE19=DJ Falk and Leony! - The Rules Of The Game (Club Mix)
TTITLE20=Tom Novy and Veralovemusic feat. PVHV - Thelma and Louise (Club Edit)
EXTD=
EXTT0=
EXTT1=
EXTT2=
EXTT3=
EXTT4=
EXTT5=
EXTT6=
EXTT7=
EXTT8=
EXTT9=
EXTT10=
EXTT11=
EXTT12=
EXTT13=
EXTT14=
EXTT15=
EXTT16=
EXTT17=
EXTT18=
EXTT19=
EXTT20=
PLAYORDER=
